<svg xmlns="http://www.w3.org/2000/svg" viewBox="0 0 515.98 364.48"><defs><style>.cls-1{fill:#231f20;}.cls-2{fill:none;stroke:#fff;stroke-miterlimit:10;stroke-width:21px;}.cls-3{fill:#ed1c24;}.cls-4{fill:#fff;}</style></defs><title>MailVectorIconWhite</title><g id="Layer_2" data-name="Layer 2"><g id="Layer_1-2" data-name="Layer 1"><path class="cls-1" d="M21,19H230.66c3.22,0,3.22-5,0-5H156c-3.22,0-3.22,5,0,5H318.44c3.22,0,3.22-5,0-5H9c-3.22,0-3.22,5,0,5H318.44c3.22,0,3.22-5,0-5H156c-3.22,0-3.22,5,0,5h74.69c3.22,0,3.22-5,0-5H21c-3.22,0-3.22,5,0,5Z"/><rect class="cls-2" x="10.5" y="10.5" width="494.98" height="343.48" rx="12" ry="12"/><path class="cls-3" d="M22.42,16.5l248.52,198"/><path class="cls-4" d="M17.12,21.8,210.93,176.21l54.7,43.58c3.19,2.54,7.48,3.06,10.61,0,2.65-2.59,3.16-8.09,0-10.61L82.43,54.78,27.73,11.2c-3.19-2.54-7.48-3.06-10.61,0-2.65,2.59-3.16,8.09,0,10.61Z"/><path class="cls-3" d="M496.71,15.8,270.94,215.19"/><path class="cls-4" d="M491.41,10.5,315.73,165.65l-50.09,44.23c-7.25,6.4,3.39,17,10.61,10.61L451.93,65.34,502,21.1c7.25-6.4-3.39-17-10.61-10.61Z"/></g></g></svg>