<svg xmlns="http://www.w3.org/2000/svg" viewBox="0 0 455.94 464.46"><defs><style>.cls-1,.cls-2{fill:#fff;}.cls-2{stroke:#fff;stroke-miterlimit:10;stroke-width:0.75px;}</style></defs><title>ProdigyLogoWhite</title><g id="Layer_2" data-name="Layer 2"><g id="Layer_1-2" data-name="Layer 1"><path class="cls-1" d="M435.58,263.24l.26-2,.13-1.72.12-1.65a1.89,1.89,0,0,0-.39.06v2.77C435.69,261.59,435.61,262.43,435.58,263.24Z"/><path class="cls-1" d="M439.57,269.11l.22-1.72a1.12,1.12,0,0,1-.36.29C439.48,268.13,439.53,268.58,439.57,269.11Z"/><path class="cls-1" d="M435.69,257.93c-1.46.3-3,2.35-4.27-.45l.44-5.81c.11-1.09.12-2.18.14-3.19l.07-2.65c-.71-2.93-1.56,0-2.35-.07.07-2.88.15-5.76-.24-5.76-.52-1.05-.92-.63-1.29.6a32.72,32.72,0,0,0-.84,6.14c1.12,3.11,1.61,7.43,2.12,11.69.3,2.13.35,4.23.48,6.14s.24,3.64.4,5a12.46,12.46,0,0,0,.54,2.87c.23.49.56.45,1-.28a18,18,0,0,0,1.62-4.47c.32-1.16.67-2.53,1.06-4.15.19-.81.41-1.68.6-2.61Z"/><path class="cls-1" d="M435.43,282c.91-5.22,2-10.41,2.51-15.69-.68-1.75-1.29-4-2.39-2.57-.09,2-.16,3.88-.19,5.58v2.45l-.09,2.25A74.39,74.39,0,0,0,435.43,282Z"/><path class="cls-1" d="M436.88,196.66c.23,0,.47.19.58,3-.2-1-.33-2-.58-3-.23,0-.51.24-1-1.06a186.19,186.19,0,0,1,5.47,34.58c.45,1.55.91,3.06,1.37,4.43a201.51,201.51,0,0,0-6.11-43.8A157.54,157.54,0,0,0,422,153.6l1.31,2.88c.44.94.86,1.86,1.22,2.8l2.21,5.4,1.08,2.59c.34.86.63,1.73,1,2.59l1.86,5.09c.3.85.63,1.68.92,2.53l.8,2.58,1.6,5.24c.59,1.77,1,3.61,1.47,5.5Z"/><path class="cls-1" d="M445.18,236.92l.1,3.09C445.56,237.22,445.42,236.93,445.18,236.92Z"/><path class="cls-1" d="M61.19,121C51,135.93,45,150.71,40.47,165.76a201.29,201.29,0,0,1,9.83-23,215.77,215.77,0,0,1,12.46-21.17,237.59,237.59,0,0,1,27.79-34.1A217.15,217.15,0,0,0,61.19,121Z"/><path class="cls-1" d="M31.65,242.09v-2l.1-2,.18-3.88.13-3.8c0-1.25.19-2.49.26-3.71l.48-7.23q.39-3.53.7-7c.12-1.14.17-2.29.33-3.4l.45-3.34c.3-2.21.51-4.41.83-6.57l1-6.41c.18-1.06.3-2.13.51-3.17l.64-3.12A199.59,199.59,0,0,0,31,237.29l.22,2.43C31.39,240.53,31.53,241.33,31.65,242.09Z"/><path class="cls-1" d="M30.36,218.14q.48-3.68.87-7.24c.11-1.19.29-2.36.48-3.51l.52-3.45c.56-4.59,1.51-9,2.21-13.3.37-2.17.91-4.26,1.33-6.38s.82-4.23,1.4-6.27l1.56-6.16.38-1.54.45-1.51.91-3c-1.69,4.4-2.89,8.95-4.23,13.37-.59,2.24-1.09,4.49-1.63,6.71l-.79,3.32c-.22,1.11-.41,2.23-.61,3.33L32,199.07l-.78,6.5-.37,3.19c-.12,1.06-.14,2.12-.21,3.17Z"/><path class="cls-1" d="M341.38,31.15c7,3.19,12.56,6,16.82,8.45,2.14,1.23,4,2.26,5.62,3.26s2.89,1.88,4,2.63c2.22.94,5.23,2.12,9.06,4.14l-2.18-1.71A245,245,0,0,0,332,24.36c-3.16-1.16-6.24-2.27-9.17-3.29s-5.81-1.7-8.4-2.38l6.88,2.79c2.28,1,4.5,2,6.76,3.07C332.68,26.54,337,28.92,341.38,31.15Z"/><path class="cls-1" d="M367.82,45.49c-9.52-3.89-5.2-1-.7,1.43S376.44,51.33,367.82,45.49Z"/><path class="cls-1" d="M271.89,30.24l-2.09-.37L263.68,29Z"/><path class="cls-1" d="M102,55a256.1,256.1,0,0,1,32.79-19.74C111.24,46.62,89.8,62.44,75.18,78.4c1.16-1.11,2.4-2.15,3.63-3.19s2.55-2,3.75-3.06a96.51,96.51,0,0,1,8.29-8.31c1.67-1.47,3.39-3.06,5.26-4.53S100,56.41,102,55Z"/><path class="cls-1" d="M361,66.42a211,211,0,0,0-44.21-24l-2.87-1.17-2.92-1-5.82-2c-1-.36-1.94-.65-2.93-.93l-2.94-.87c-2-.57-3.91-1.17-5.87-1.71l-5.92-1.42c-2-.46-3.92-1-5.91-1.32l-5.92-1.1c-1-.18-2-.38-3-.53l-3-.4A207.16,207.16,0,0,0,176,34a194.85,194.85,0,0,0-76,41.56A254.31,254.31,0,0,0,71.31,105.8c-.6.75-1.22,1.48-1.82,2.25l-1.73,2.35-3.51,4.73C63,116.7,62,118.39,60.87,120s-2.28,3.3-3.32,5l-3.14,5.2c-.52.87-1.06,1.73-1.57,2.62l-1.45,2.7L48.49,141c-.93,1.82-1.77,3.69-2.66,5.53a198,198,0,0,0-9,22.62l-1.69,5.74c-.53,1.91-1.17,3.77-1.56,5.69l-1.31,5.67c-.21.94-.44,1.87-.63,2.8l-.48,2.81a149.85,149.85,0,0,0-2,40.59c.09-2.49.38-4.92.6-7.3L30,221.6c.1-1.17.17-2.33.34-3.46-.13,1.69,0,3.38,0,5l.08,4.87c0,1.59.16,3.17.28,4.71l.4,4.53c-.07,2.37.07,4.74.17,7.1l.15,3.54a30,30,0,0,0,.21,3.54l.66,7,.16,1.76.25,1.75.5,3.49c.56,4.68,1.6,9.26,2.46,13.87.51,2.29,1.12,4.56,1.66,6.83l.84,3.41,1,3.36a198.93,198.93,0,0,0,23.07,50.93,201.31,201.31,0,0,0,83.72,74c2.59,1.16,5,2.19,7.42,3.16s4.79,1.61,7.14,2.38,4.76,1.37,7.2,2.12c1.23.36,2.47.73,3.74,1.13l4,1.08c5.47,1.62,11,2.82,16.51,3.94l8.3,1.42,8.33,1c.05-.08-.08-.19-.38-.31a199.53,199.53,0,0,0,34.6.34l4.3-.39c1.43-.13,2.87-.23,4.29-.47L260,432l8.47-1.66c2.81-.63,5.59-1.38,8.39-2.06a188.84,188.84,0,0,0,62.65-30,202.2,202.2,0,0,0,47.2-46.55,39.75,39.75,0,0,1,3-3.85,25.8,25.8,0,0,1,2.15-2.28,27.94,27.94,0,0,0,4.16-4.4,184.53,184.53,0,0,0,16.41-26.81A152.9,152.9,0,0,0,424,282.66l1.15.25.57-2.84.45-2.69c.31-1.73.63-3.31,1-4.74a52.62,52.62,0,0,1,.55,5.58c0,1,.13,2.1.09,3.16l-.1,3.23-.26,6.23c-.16,1.92-.31,3.66-.36,5-.1,2.77.15,4.15,1.2,2.8s3.09-5.41,5.67-13.78h0l-.83,5.3-.13.57h0c-.25,2.06-.69,3.86-1,5.56s-.52,3.24-.71,4.7-.39,2.81-.56,4.13-.3,2.59-.4,3.87l1.29-3.8.64-1.9c.21-.64.37-1.29.56-1.93l2.2-7.74c.25,1.11.6,1.89,1.28,1.5a8.12,8.12,0,0,1-.09,1.45L435,300.82a7.48,7.48,0,0,0,.39,2c-.63,3.52-1.66,7.48-2.61,11.44-1.18,3.88-2.3,7.77-3.36,11.07-2.26,6.54-3.61,11-2,9.37,1.07-1.36,2.54-4.54,4.3-8.77.83-2.14,1.63-4.57,2.52-7.16.43-1.3.93-2.62,1.34-4l1.23-4.26c.37-.64.77-1.38,1.14-2.16-2.34,7.54-1.71,7.78-.81,7.27.45-.26,1-.71,1.2-.52s.22,1-.59,3.29c-1.19,3-2.29,6-3.51,8.94l-3.84,8.81c-1.38,2.89-2.82,5.75-4.25,8.63-.68,1.45-1.51,2.83-2.29,4.23l-2.38,4.18A233,233,0,0,1,399.76,384l-3,3.49c-1,1.16-2,2.34-3,3.42l-6.23,6.62L381,403.82c-1.06,1.07-2.2,2-3.32,3l-3.37,3a241.36,241.36,0,0,1-29,21.55A233.1,233.1,0,0,1,312,448.62L308.84,450c-1,.44-2.09.88-3.16,1.24l-8.8,3.15L288,457c-.74.21-1.47.45-2.21.64l-2.23.54-4.45,1.07c-1.49.34-3,.73-4.45,1l-4.48.82c-6,1.2-12,1.86-18,2.55l-9.11.63c-1.52.13-3,.12-4.58.15l-4.6.06c1.56-.31,3.19-.6,4.85-.88A266.65,266.65,0,0,1,180,458.4a219.31,219.31,0,0,1-68.5-25.62l-8-4.85-7.79-5.26c-1.32-.86-2.56-1.82-3.82-2.77L88,417.09c-2.57-1.86-5-4-7.4-6a218.43,218.43,0,0,1-27.27-27.46A233.82,233.82,0,0,1,0,231.63a251.13,251.13,0,0,0,9.79,68.49l2.13,7.6,2.5,7.44c.43,1.23.82,2.47,1.27,3.69l1.43,3.61c1,2.39,1.87,4.8,2.9,7.12-1-2.44-1.91-4.91-2.87-7.35l-1.42-3.65-1.26-3.69L12,307.53l-2.18-7.41c-.33-1.22-.71-2.43-1-3.67L8,292.74c-.55-2.48-1.15-5-1.65-7.44L5,277.81c-.2-1.25-.47-2.49-.62-3.74l-.47-3.76c-.31-2.5-.66-5-.93-7.48l-.6-7.45-.3-3.7L2,248l-.28-7.31C1.36,221.3,3,203.08,4.87,187.27c.54-1.63.91-2.42,1.24-3.21a30.51,30.51,0,0,0,1.05-3.16l2.4-8.38c.84-2.78,1.84-5.5,2.75-8.23.48-1.36.9-2.73,1.42-4.07l1.57-4,1.55-4,.77-2,.85-1.93,3.33-7.63c1.14-2.5,2.35-4.92,3.48-7.35L27,129.7l1.79-3.5,3.41-6.87c-.34-.2,5.09-8.67,2.63-6.27l2-3.25,2.19-3.2c1.49-2.14,3-4.34,4.53-6.51,3.26-4.24,6.5-8.65,10.1-12.75,3.42-4.2,7.22-8.13,10.83-12.1,1.86-1.93,3.76-3.78,5.6-5.65l2.74-2.77,2.8-2.61Q78,62,80.37,59.71c1.6-1.5,3.26-2.93,4.87-4.43s3.2-3,4.87-4.46l5-4.36,2.73-2.06,2.82-1.94,5.66-3.86c1.88-1.29,3.87-2.42,5.8-3.64s3.9-2.42,5.9-3.54l6-3.31,3-1.65,3.1-1.46,6.19-3a34.2,34.2,0,0,1,3.14-1.42l3.17-1.36a232.65,232.65,0,0,1,53.25-15.8A245.88,245.88,0,0,1,252.69.52l1.81.09,1.81.18,3.62.36c2.42.25,4.85.46,7.27.77L274.46,3l3.65.56c1.21.21,2.42.48,3.63.71L289,5.78c2.43.5,4.82,1.19,7.25,1.79l3.63.94,1.82.47,1.8.55,7.21,2.24c2.41.72,4.78,1.66,7.21,2.57s4.9,1.81,7.34,2.86c4.86,2.15,9.86,4.24,14.65,6.78l3.63,1.84,1.81.92,1.77,1,7,4c1.17.65,2.3,1.35,3.41,2.08l3.3,2.18c2.19,1.43,4.42,2.76,6.46,4.27A247.94,247.94,0,0,0,282.77,6.81a213.26,213.26,0,0,0-43-5.68,166.14,166.14,0,0,0-38.41,3.25c-2.68.54-5.36,1-8,1.6l-8,1.92a243,243,0,0,1,97.39-1.1A250.52,250.52,0,0,1,333,24.72l-1-.37a236.55,236.55,0,0,0-39.77-13.18A218.31,218.31,0,0,0,254.48,4c-6.17-.4-12.19-.89-18-.72H230l-2.12.15q-4.22.3-8.27.67c-1.35.1-2.68.29-4,.49l-3.88.61c-5.4.75-10.69,1.87-16,2.87,5-.73,9.92-1.65,14.93-2.06,2.5-.25,5-.53,7.49-.75l7.51-.4,3.75-.19c1.25-.05,2.5,0,3.75,0h7.5c1.25,0,2.5.05,3.75.11l3.74.18,3.74.18c1.25.05,2.5.12,3.74.26l9.25.9c3.08.35,6.13.87,9.2,1.31,1.53.25,3.08.41,4.59.74l4.55.9c3,.61,6.08,1.16,9.07,2a229,229,0,0,1,22.21,7.51c-.8-.21-1.65-.44-2.39-.62a43.77,43.77,0,0,0-6.72-1.31c-1.31-.18-2.64-.32-3.94-.43-.65,0-1.28-.1-1.89-.13s-1.22,0-1.78,0c-4.53.11-7,.92-2.34,2.84a247.41,247.41,0,0,1,38,14.69,237.94,237.94,0,0,1,34.32,20.38c2.48,1.78,4.8,3.61,7.07,5.31s4.34,3.44,6.31,5.08,3.86,3.16,5.52,4.69l4.58,4.22c2.82,2.53,4.89,4.74,6.34,6.22l1.64,1.72a3.58,3.58,0,0,1,.53.63c.14.43-.71-.16-2.29-1.53s-3.85-3.56-6.83-6l-4.75-4.09c-.83-.75-1.74-1.46-2.66-2.19L380.4,66c-3.78-3.14-8.09-6.16-12.33-9.26-2.14-1.52-4.37-2.91-6.51-4.35l-3.19-2.11c-1.07-.67-2.15-1.29-3.2-1.92l-6-3.58c-1.93-1.1-3.8-2-5.48-2.94l-4.56-2.4c-1.36-.67-2.54-1.19-3.47-1.62-1.87-.85-2.79-1.24-2.45-1,2.11,1.21,4.27,2.32,6.34,3.59l6.2,3.8-6.13-3-1.49-.71-1.51-.63-2.94-1.2L330.22,37c-1.17-.57-2.37-1.17-3.62-1.69L319.19,32c-2.43-1.06-4.85-1.89-7-2.68a47,47,0,0,0-5.71-1.76c-11.1-2.75-22.9-5.56-35.24-7.56l-4.65-.72-2.34-.36c-.78-.11-1.57-.17-2.36-.26-3.15-.32-6.32-.67-9.5-1s-6.4-.29-9.61-.4c-1.6-.09-3.21,0-4.82,0l-4.82.14-3,.15-3.11.3-6.39.65c-2.17.17-4.35.58-6.57.91l-6.71,1.06a223.14,223.14,0,0,0-27.32,7c.09.38-2.19,1-4.08,1.54s-3.35,1.14-1.74,1.08c-4.24,1.24-8.7,2.35-12.93,3.93-2.13.75-4.25,1.47-6.3,2.24s-4,1.68-5.89,2.5a87.7,87.7,0,0,0-10,5,31.48,31.48,0,0,0-6.42,4.6l-1.1.63c-1.09.57-2.6,1.46-4.17,2.5a150.36,150.36,0,0,0-31.62,22.3,216.37,216.37,0,0,0-24.61,26.9l-4.29,5.17-4.11,5.4c-.69.91-1.39,1.8-2.07,2.72l-2,2.82c-1.31,1.89-2.67,3.76-4,5.68,1.72-2.51,4-5.53,6.26-8.6s4.71-6,6.48-8.44l3.67-4.74A247.16,247.16,0,0,1,94.75,76.2,224.82,224.82,0,0,1,121.37,56c1.45-1.1,3.81-2.88,6.05-4.48,1.43-.74,2.88-1.43,4.35-2.15.27-.32.58-.65.92-1a186,186,0,0,1,30.1-13.92c2.57-1,5.2-1.83,7.77-2.66s5.09-1.72,7.62-2.36l7.35-2c2.4-.62,4.74-1.12,7-1.69,4.24-1,8.59-1.59,13-2.28,2.18-.38,4.4-.53,6.61-.76l6.67-.61,6.72-.25c2.25-.07,4.5-.2,6.75-.1,4.51.11,9,.1,13.55.55,2.26.18,4.52.34,6.78.55l6.74.89,3.37.45c1.12.16,2.23.4,3.34.59L272.69,26c1.12.18,2.21.47,3.31.73l3.29.79,3.28.79c1.1.25,2.19.52,3.26.85,4.3,1.3,8.64,2.4,12.81,4-4.21-1.36-8.54-2.25-12.79-3.32l-1.6-.39-1.61-.31-3.22-.61c-2.15-.39-4.27-.84-6.42-1.18a215.24,215.24,0,0,0-25.63-2.43l4,.18c1.32.06,2.62.23,3.93.34l7.79.74c5.12.79,10.23,1.35,15.18,2.43l3.73.73c1.24.24,2.48.47,3.69.8l7.29,1.8c.6.15,1.21.29,1.81.45l1.78.53L300.13,34c2.36.72,4.75,1.36,7,2.23,2.82,1.14,5.61,2.19,8.37,3.37l8.59,3.89,8.4,4.29-7.71-4.21c-2.61-1.29-5.24-2.52-7.86-3.78a219.83,219.83,0,0,1,31.41,15.16A214.78,214.78,0,0,1,386.47,84.1a217.07,217.07,0,0,1,31,37.57,207.61,207.61,0,0,1,21.76,43.84,212.07,212.07,0,0,1,11,47.55c-.63-1.2-1.29-2.59-2-4.12a207.51,207.51,0,0,0-11.52-44.34A163.29,163.29,0,0,0,417.25,128l3.23,5.56c.52.9,1,1.76,1.54,2.64l1.4,2.63c1.84,3.46,3.68,6.72,5.23,10.11l2.43,5c.81,1.69,1.48,3.46,2.24,5.22l2.26,5.46,2.06,5.89c-.22.06-.47.31-1.07-1a178.7,178.7,0,0,1,9.77,34.93c-1.74-3.77-3.36-8-5.43-12.06q-.81-2.22-1.62-5l-.41-1.39-.48-1.42-1-3c-.67-2-1.29-4.17-2-6.33L433,168.75c-.44-1.18-.81-2.38-1.3-3.53l-1.43-3.47-1.42-3.46c-.47-1.15-.93-2.3-1.48-3.42l-3.13-6.72c-.5-1.13-1.08-2.22-1.65-3.3l-1.71-3.26c-2.18-4.4-4.8-8.53-7.22-12.76l-4-6.12c-.67-1-1.31-2-2-3l-2.13-3a204.06,204.06,0,0,0-40.17-42.13l-5.15-4.08c-.86-.68-1.71-1.37-2.58-2l-2.67-1.91-5.34-3.83L344,59.26l-2.76-1.78c-.92-.6-1.88-1.11-2.82-1.67l-5.67-3.29c-1.89-1.1-3.87-2-5.8-3L324,48l-1.45-.75-1.49-.68a211.42,211.42,0,0,0-49.25-16.3c2.12.3,4.19.79,6.27,1.17s4.16.77,6.2,1.26l6.09,1.51,3,.75c1,.27,2,.59,3,.88l5.92,1.78,1.47.44,1.45.51,2.88,1,5.74,2,5.6,2.29A221.77,221.77,0,0,1,361,66.42Zm48.43,277.21-2.1,4.18L405,352a11.78,11.78,0,0,1,1-1,28.59,28.59,0,0,0,2.06-3.73c.58-1.35,1-2.56,1.39-3.64Zm-44.67,53.26a158.11,158.11,0,0,0,24.36-24.62,201.55,201.55,0,0,0,21.11-32.46.41.41,0,0,0-.14-.35q-2.09,3.5-4.24,7.22l-4.71,7.39c-1.61,2.5-3.41,4.94-5.12,7.48-.44.63-.86,1.28-1.32,1.89l-1.4,1.85-2.8,3.71a209.2,209.2,0,0,1-25.72,27.89Zm-73.29,32.17H292a.91.91,0,0,1-.1-.16Zm-271-161.74A291.51,291.51,0,0,0,31.12,306a207.49,207.49,0,0,0,19.21,40c4.67,7.73,10.81,14.44,18.32,23.69a154.84,154.84,0,0,0,13.16,13.7c1,1,2,1.93,3,2.81l3.11,2.67,3.1,2.72c1,.94,2.21,1.79,3.35,2.74l-1-1c-.57-.61-1.38-1.38-2.1-2.23l-2.94-3.35A115.31,115.31,0,0,0,99,397.08c1.68,1.36,3.44,2.52,5.11,3.73l2.51,1.77,1.24.87,1.29.81c3.45,2.13,6.77,4.42,10.5,6.58,1.85,1.1,3.7,2.34,5.69,3.52s4.09,2.42,6.26,3.78c.1-.18.86,0,1.94.26a19.14,19.14,0,0,1,3.78,1.44q2.46,1.18,4.9,2.4l4.95,2.22c1.65.72,3.24,1.53,4.88,2.19l4.87,2c3.18,1.37,6.4,2.39,9.47,3.39a73.31,73.31,0,0,0,8.93,2.37c14.08,3.59,28.5,5.79,40.13,5.78a25.5,25.5,0,0,0,2.67,0,12,12,0,0,0,1.66-.08l1.83-.2c2.54-.28,5.42-.6,8.3-.72l10.51-.48c3.49-.35,7-.61,10.45-1a7.77,7.77,0,0,1-.88-.21c-2.84.2-5.69.42-8.56.69-1.43.17-2.87.17-4.31.26s-2.88.16-4.33.27c-1.08.07-2.16.18-3.26.21l-3.32.06-6.81.11-6.93-.25c-1.16,0-2.34-.06-3.5-.15l-3.49-.32A180.12,180.12,0,0,1,178.43,434l-7.84-2c-2.58-.77-5.13-1.61-7.68-2.4L161,429c-.63-.21-1.25-.46-1.88-.68l-3.75-1.38-3.74-1.36L148,424l-3.65-1.53-1.82-.76-1.78-.85-7.11-3.38-6.91-3.7-1.72-.92-1.68-1-3.35-2-3.35-2-3.24-2.15-3.24-2.14-1.62-1.07L107,401.35l-6.27-4.57-6-4.85a218.47,218.47,0,0,1-22.31-21.41l-4.39-5L65.75,363c-.73-.84-1.41-1.72-2.12-2.58l-4.22-5.19c-1.33-1.79-2.62-3.6-3.91-5.42a184.56,184.56,0,0,1-20.08-37c-5.38-12.76-8.88-25-11.91-33.69-.46-1.46-1-3.68-1.5-5.9-.3-1.11-.5-2.23-.75-3.25A20.81,20.81,0,0,0,20.46,267.32Zm-18.6-34.5A254,254,0,0,0,24.58,334.75,188.29,188.29,0,0,0,37.48,358a200.19,200.19,0,0,0,19.64,25.17l5.14,5.22c.83.82,1.62,1.65,2.44,2.4l2.42,2.15c1.57,1.38,3,2.65,4.4,3.78s2.69,2,3.82,2.85c4.6,3.17,6.84,3.89,5.35.85a59.79,59.79,0,0,1-6.42-4.17c-2.41-1.88-5.08-4.21-8-6.86-1.44-1.36-2.88-2.86-4.4-4.41l-2.32-2.39-1.18-1.24L57.2,380l-4.72-5.54c-.82-.94-1.59-2-2.36-3l-2.35-3.11-2.39-3.2c-.8-1.08-1.52-2.23-2.3-3.37-1.51-2.29-3.12-4.58-4.59-7l-4.38-7.4c-1.44-2.51-2.73-5.14-4.11-7.74a223.46,223.46,0,0,1-13.4-32.76,255.94,255.94,0,0,1-7.62-32c-.43-2.48-.71-4.92-1.06-7.27S7.21,263,7,260.83l-.64-6.29-.32-2.92-.18-2.77c-.23-3.59-.53-6.73-.78-9.33a51,51,0,0,0-.67-6.14c-.56-2.93-1.41-3.38-2.6-.56ZM152,17.81a308,308,0,0,0-39.43,19.44A232.71,232.71,0,0,1,152,17.81ZM51.28,112.54c1.35-2.2,2.69-4.42,4.22-6.52s3-4.29,4.51-6.42c3.24-4.13,6.43-8.38,10-12.31,3.44-4.09,7.28-7.83,11-11.68l6-5.5,1.49-1.37c.51-.45,1-.87,1.55-1.31l3.11-2.6,3.12-2.6c1-.87,2.15-1.64,3.22-2.47,2.17-1.62,4.3-3.28,6.5-4.85l6.7-4.56,1.68-1.13,1.72-1.06L119.57,46,123,43.94c1.15-.69,2.34-1.3,3.51-2,2.35-1.28,4.68-2.61,7-3.84,4.79-2.33,9.5-4.77,14.36-6.78C162.72,24.83,179.31,20.49,195.7,18S228.28,14.74,243,14.2l0-1.2s-.82,0-1.64.08l-1.64.15c-2.87-.13-5.59-.28-8.23-.44-1.32-.11-2.61-.12-3.88-.14l-3.77-.07-3.69-.08h-3.63l-7.22.26,1.68-.23-2.91.29a129.82,129.82,0,0,0-20.65,3c-3.46.73-6.91,1.81-10.39,2.78l-3.73.93c-1.24.35-2.46.73-3.69,1.1l-7.39,2.24L155,25.5c-1.21.45-2.43.85-3.63,1.33l-3.57,1.48A209.73,209.73,0,0,0,120.31,42l-6.45,4c-1.08.64-2.11,1.36-3.14,2.07l-3.08,2.12c-4.16,2.74-8,5.87-11.84,8.83A190.32,190.32,0,0,0,75.18,78.4l-2.87,3.06c-.94,1-1.8,2.1-2.69,3.13-1.75,2.1-3.51,4.13-5.15,6.23l-4.75,6.34-1.18,1.58-1.09,1.63-2.18,3.25c-1.45,2.16-2.92,4.3-4.23,6.56l-4,6.72c-2.52,4.64-5.22,9.27-7.63,14.27L42,126.66c1-1.59,2.12-3.22,3.2-4.87l3.19-4.89C49.45,115.36,50.44,113.88,51.28,112.54Z"/><path class="cls-1" d="M311.15,37.2a211.75,211.75,0,0,1,37.22,17.69c4.71,2.6,9.14,5.61,13.67,8.5,4.36,3.11,8.81,6.12,13,9.51a198.35,198.35,0,0,1,28.44,27.94A211.11,211.11,0,0,1,427,135.63a227.89,227.89,0,0,1,25.43,80.79c.69.75,1.28,1.16,1.87,1.1s1.16-.57,1.62-1.64a210.62,210.62,0,0,0-27.65-87.1,240.48,240.48,0,0,0-60-68.81l-1.21-.8c-11.12-7-25.65-16-42-23.15S290.7,23.3,274.71,21.08a257.1,257.1,0,0,0-48-1.73A205.71,205.71,0,0,0,180,27.47c5.51-1.4,11.1-2.29,16.62-3.31,5.58-.71,11.11-1.58,16.68-1.91,5.55-.58,11.11-.59,16.66-.8,5.54.14,11.08.08,16.6.59,5.53.27,11,1.08,16.49,1.73,5.44,1,10.92,1.8,16.29,3.17,5.43,1.15,10.73,2.82,16.07,4.4l7.9,2.76c.66.24,1.32.45,2,.71l1.94.79Z"/><path class="cls-1" d="M37.31,186.52a193.45,193.45,0,0,1,11.17-32.18L49,153l.64-1.34L51,149c.86-1.77,1.65-3.57,2.54-5.3l2.73-5.13L57.6,136c.46-.84,1-1.65,1.45-2.47,2-3.28,3.82-6.57,6-9.66l3.08-4.7,3.28-4.51a210.48,210.48,0,0,1,29.47-32.74A211.39,211.39,0,0,0,58,130.77,143.17,143.17,0,0,0,44.76,158.6,188.3,188.3,0,0,0,37.31,186.52Z"/><path class="cls-1" d="M119.57,66.9c-1.65,1.2-3.32,2.33-4.92,3.56l-4.73,3.73L107.58,76l-2.26,2-4.5,3.89A211.56,211.56,0,0,1,340.2,60.75c2.62,1.57,5.26,3.11,7.85,4.71l7.55,5.08a208.74,208.74,0,0,0-66.81-33.39A203.43,203.43,0,0,0,252.44,30a214,214,0,0,0-36.5-.47l-4.5.39c-1.5.14-3,.22-4.48.46L198,31.62l-8.76,1.68c-.73.15-1.46.26-2.18.44l-2.15.53-4.29,1.07a202.85,202.85,0,0,0-32.75,11.58,197.33,197.33,0,0,0-29.14,16.63l-3.36,2.36c-1.12.78-2.23,1.56-3.29,2.42l-6.37,5c-4,3.52-8,7-11.71,10.67-1.08,1.09-2.35,2.24-3.47,3.42A232.71,232.71,0,0,1,113.72,68.8a227.57,227.57,0,0,1,25.47-15.16c2.19-1.13,4.46-2.11,6.68-3.18l3.35-1.57,3.42-1.4c2.29-.91,4.55-1.92,6.86-2.77l7-2.47,1.74-.62L170,41.1l3.53-1.1c2.36-.71,4.71-1.46,7.12-2l7.18-1.78,7.26-1.42A201,201,0,0,0,119.57,66.9Z"/><path class="cls-1" d="M298.63,33.11l4.29,1.48c.71.25,1.43.48,2.13.74l2.1.84,4.94,1.74,2.45.86c.81.29,1.61.64,2.41,1-1.91-1-3.91-1.77-5.8-2.57L304.92,35Z"/><path class="cls-1" d="M209.33,12.85l-1.23.05a234.73,234.73,0,0,0-31,5.77,249.25,249.25,0,0,0-42.36,16.59,241.41,241.41,0,0,1,38.62-14.72A310.92,310.92,0,0,1,209.33,12.85Z"/><path class="cls-1" d="M118.15,30.44c-1.55.74-3.74,2.08-6,3.34s-4.46,2.54-5.93,3.45l-4.86,4c2.72-1.68,5.39-3.5,8.23-5l4.24-2.89,2.93-2Z"/><path class="cls-1" d="M4.87,187.27a234.54,234.54,0,0,1,58.85-113,237.77,237.77,0,0,1,31.4-27.85c1-.89,2-1.83,3.09-2.7l3.18-2.59c-4,2.44-7.82,5.26-11.67,8l-1.44,1-1.39,1.08-2.77,2.18c-1.83,1.47-3.7,2.88-5.48,4.4l-5.27,4.62-2.62,2.32-2.5,2.43-5,4.87c-1.63,1.64-3.15,3.37-4.72,5.06a206.59,206.59,0,0,0-17,21.21c-1.29,1.82-2.46,3.72-3.67,5.57s-2.43,3.68-3.52,5.59l-3.23,5.69L29.57,118c-.52.94-1,1.92-1.46,2.88-3.12,6-6.84,15.48-9.56,21.58A216.49,216.49,0,0,0,0,231.63a236.67,236.67,0,0,1,4.55-43.15Z"/><path class="cls-2" d="M187,243.81c-4.51,0-13.73-1-19.19-1.68v41.65c0,15.45,3.2,21.16,10.35,21.16v8.73h-60v-8.73c6.77,0,10.35-5.37,10.35-20.49v-177c0-13.77-3.2-20.16-10.35-20.16V78.53c18.06-2,43.83-4,63.39-4,48.72,0,75.24,25.53,75.24,84C256.78,211.56,232.33,243.81,187,243.81ZM181.16,97.35c-8.28,0-27.65,2-36.12,3.36V292.18h5.83V218.61a265.15,265.15,0,0,0,33.3,3c39.13,0,56.06-21.83,56.06-61.47,0-46.33-20.69-62.8-59.07-62.8Zm2.63,114.55a249.84,249.84,0,0,1-32.92-3V109.8c7.9-1,22.2-2.69,30.85-2.69,33.48,0,52.86,12.77,52.86,54.08,0,33.24-16.36,50.7-50.79,50.7Zm.38-83c-4.33,0-10.35.67-16.37,1.34v59.84a115,115,0,0,0,16.93,1.68c23.7,0,33.48-7.73,33.48-30.9,0-25.22-13.58-31.94-34-31.94Z"/><path class="cls-1" d="M354.8,321.43c-8.81-.06-13.12,4-13.19,14.43l-.24,35.94c0,2.62.43,7.38,2.55,11-25.06,11-45.12,19.69-86,19.42-53.79-.36-99.48-37.08-99.14-89,.36-55,47.71-88.46,102.22-88.1,23.32.15,39,6.21,42.8,6.23,3.33,0,7.14-.19,10.25-1.6l12.93,57.68-5.49,2.11c-8.71-13.86-23.88-23.72-55.54-23.93-33.8-.22-55.81,16.53-56,47.94-.22,33.08,25.38,49.2,52.51,49.38,11.19.07,24.76-1.26,31-3.6l.16-23.8c.07-10.47-4.9-14.55-13.23-14.61v-6.19l74.5.49Zm-33.87,41.93.23-34.51H314l-.27,40.46c-8.83,4.23-26.73,10.3-52.91,10.12-39.75-.26-73.36-28.57-73.1-66.41.23-34.75,31.85-65,73.74-64.73,21.66.14,33.77,3.56,44.93,8.87l-1.85-8.1c-7.83-3.62-22.8-7.29-45.17-7.44-45.22-.3-78.52,32.09-78.78,71.36-.28,41.89,33.79,72.82,79,73.12,33.8.22,54.8-9.39,63.16-13.38A24.88,24.88,0,0,1,320.93,363.36Z"/></g></g></svg>